PathFileType	4	(X/Y/Z)	1_coords_data.trc
DataRate	CameraRate	NumFrames	NumMarkers	Units	OrigDataRate	OrigDataStartFrame	OrigNumFrames
30.0	30.0	7	21	m	30.0	1	51
Frame#	Time	THUMB_TIP	THUMB_IP	THUMB_MCP	THUMB_CMC	INDEX_TIP	INDEX_DIP	INDEX_PIP	INDEX_MCP	MIDDLE_TIP	MIDDLE_DIP	MIDDLE_PIP	MIDDLE_MCP	RING_TIP	RING_DIP	RING_PIP	RING_MCP	PINKY_TIP	PINKY_DIP	PINKY_PIP	PINKY_MCP	WRIST
X1	Y1	Z1	X2	Y2	Z2	X3	Y3	Z3	X4	Y4	Z4	X5	Y5	Z5	X6	Y6	Z6	X7	Y7	Z7	X8	Y8	Z8	X9	Y9	Z9	X10	Y10	Z10	X11	Y11	Z11	X12	Y12	Z12	X13	Y13	Z13	X14	Y14	Z14	X15	Y15	Z15	X16	Y16	Z16	X17	Y17	Z17	X18	Y18	Z18	X19	Y19	Z19	X20	Y20	Z20	X21	Y21	Z21
0	0.0	-0.015708000183105468	-0.06618319702148437	0.9492960205078125	-0.013865799903869628	-0.04381520080566406	0.9612990112304688	-0.025869499206542967	-0.02392530059814453	0.9740139770507813	-0.03430490112304688	0.008182849884033203	0.98631201171875	0.011913399696350097	-0.002754080057144165	0.8543070068359375	0.006277880191802978	-0.001091660022735595	0.8769329833984375	0.0015461499691009522	0.000744373023509979	0.8990349731445313	-0.008247480392456055	0.00795015001296997	0.9360549926757813	0.013451199531555175	0.03511159896850586	0.8430880126953125	0.004967090129852295	0.03431949996948242	0.8679149780273437	-0.002368789911270141	0.03195630073547363	0.8935540161132812	-0.011636099815368652	0.03039940071105957	0.930614013671875	0.019215700149536132	0.07101200103759765	0.865364990234375	0.010987799644470215	0.06542340087890625	0.8871179809570312	0.004737539768218994	0.05916159820556641	0.9100910034179688	-0.009344799995422363	0.04950590133666992	0.938218017578125	0.01809379959106445	0.1105719985961914	0.9172659912109375	0.011358699798583984	0.09708439636230469	0.9290189819335938	0.005880579948425293	0.08431900024414063	0.9400999755859375	-0.005354919910430908	0.06460690307617188	0.956030029296875	-0.056915699005126955	0.04047840118408203	0.99672900390625
1	0.03333333333333333	-0.01646470069885254	-0.06668609619140625	0.9499929809570312	-0.012733400344848633	-0.043512001037597656	0.9603480224609375	-0.02517919921875	-0.02227820014953613	0.97368701171875	-0.03254880142211914	0.009651209831237793	0.9870230102539063	0.011806400299072265	-0.0023635599613189688	0.8545969848632813	0.005780230045318604	-0.000581201016902923	0.876551025390625	-2.5007499381899002e-05	0.0017995200157165522	0.8990540161132813	-0.00906898021697998	0.007725590229034423	0.934656005859375	0.012821999549865723	0.03542300033569336	0.8435120239257813	0.0054203200340271	0.03459120178222656	0.8664639892578125	-0.0022476499080657957	0.03274679946899414	0.8937650146484375	-0.010242899894714356	0.030783100128173826	0.9308980102539063	0.018053699493408203	0.07103579711914063	0.8648699951171875	0.010387399673461913	0.06608370208740234	0.8855750122070313	0.003949790000915527	0.060132701873779296	0.9084569702148437	-0.005686880111694336	0.050232398986816404	0.9392479858398437	0.017606199264526366	0.11039900207519532	0.9169459838867188	0.011461199760437012	0.09703919982910156	0.928968017578125	0.005709489822387695	0.08491500091552734	0.93889697265625	-0.004291160106658935	0.06589119720458984	0.9535260009765625	-0.056344398498535155	0.03757400131225586	0.9971489868164063
2	0.06666666666666667	-0.017170400619506837	-0.06667749786376953	0.9499979858398437	-0.013318099975585938	-0.04342789840698242	0.9601430053710938	-0.025715499877929687	-0.022099000930786133	0.9732579956054688	-0.033217300415039064	0.009890390396118163	0.986541015625	0.011919400215148927	-0.0020589098930358877	0.8544340209960938	0.005896669864654541	-0.00035461801290512	0.8762260131835937	-3.832960035651e-06	0.002031569957733154	0.8987429809570312	-0.009341400146484375	0.0079931001663208	0.934281005859375	0.013467000007629395	0.035597900390625	0.8434539794921875	0.005917160034179687	0.03478160095214844	0.8664000244140625	-0.0019302799701690669	0.03298270034790039	0.8935969848632812	-0.010281499862670898	0.03102549934387207	0.9306420288085937	0.018494600296020507	0.07151840209960937	0.8650750122070312	0.010589200019836426	0.06649490356445313	0.8856749877929687	0.004096720218658447	0.06044079971313476	0.90843701171875	-0.005636400222778321	0.050448200225830075	0.9390490112304688	0.018244499206542968	0.11062200164794922	0.9173800048828125	0.011796299934387206	0.09726210021972656	0.929218994140625	0.005804329872131348	0.08511060333251953	0.93906201171875	-0.004347799777984619	0.06605870056152344	0.953510009765625	-0.05677220153808594	0.03790969848632812	0.9966309814453125
3	0.1	-0.017137300491333007	-0.06667980194091797	0.9499819946289062	-0.01345829963684082	-0.04337829971313477	0.9600679931640625	-0.025918500900268555	-0.021968900680541994	0.97293701171875	-0.033605998992919925	0.009967350006103515	0.9863079833984375	0.01224250030517578	-0.0013865499496459961	0.8543350219726562	0.006198090076446533	0.000201017007231712	0.8761649780273437	0.00024282799661159502	0.002500659942626953	0.8987000122070312	-0.009303569793701172	0.008549659729003907	0.9343679809570312	0.013715900421142579	0.03621110153198242	0.8434099731445313	0.0063174300193786625	0.03531000137329102	0.8663740234375	-0.0015249300003051748	0.033457500457763675	0.8936129760742187	-0.010226900100708008	0.031402200698852537	0.9306439819335938	0.018753000259399414	0.07238179779052735	0.8654509887695313	0.010791099548339844	0.06725399780273437	0.8860180053710938	0.0043244600296020504	0.061051300048828125	0.908666015625	-0.0055392999649047855	0.05073979949951172	0.9391859741210937	0.018459999084472656	0.11105599975585938	0.9180809936523437	0.011759900093078613	0.09769219970703125	0.9296019897460938	0.005777050018310547	0.08554329681396484	0.9393989868164062	-0.0043736200332641605	0.06631780242919921	0.9537119750976563	-0.05713219833374023	0.03824380111694336	0.996489990234375
4	0.13333333333333333	-0.017404300689697266	-0.06678469848632812	0.9506530151367187	-0.013536199569702149	-0.043414199829101566	0.9603699951171875	-0.025918500900268555	-0.02189469909667969	0.9729769897460937	-0.03367350006103516	0.010187999725341797	0.9862319946289062	0.011981200218200684	-0.0017178499698638913	0.8543170166015625	0.006152949810028076	-3.0781600624322e-05	0.8762169799804688	0.00026818099617958004	0.002383169889450073	0.8987069702148438	-0.009405900001525878	0.008427350044250489	0.9342039794921875	0.013673500061035156	0.03560879898071289	0.8433740234375	0.006352930068969726	0.034848899841308595	0.8663159790039062	-0.00143586003780365	0.033176200866699215	0.8935330200195313	-0.010279000282287598	0.03144160079956055	0.9305609741210937	0.019138399124145507	0.07211609649658203	0.8656259765625	0.01097719955444336	0.06708689880371094	0.8860020141601562	0.004454989910125732	0.06097969818115234	0.9085399780273438	-0.005608049869537354	0.050785900115966794	0.9390230102539062	0.018856000900268555	0.1109520034790039	0.9180460205078125	0.011837599754333496	0.09767620086669922	0.9294990234375	0.00570403003692627	0.08557859802246094	0.93922900390625	-0.004450799942016603	0.06638520050048828	0.9536090087890625	-0.057189300537109376	0.03818730163574219	0.9964979858398437
5	0.16666666666666666	-0.017433000564575196	-0.06682790374755859	0.950698974609375	-0.013535900115966797	-0.04341730117797851	0.9603189697265625	-0.02598660087585449	-0.02182909965515137	0.9728889770507813	-0.03367459869384765	0.010212499618530274	0.9860919799804687	0.011915800094604492	-0.0014823299646377559	0.854177978515625	0.00618086004257202	0.000141619995236396	0.8761270141601563	0.000279215991497039	0.002480249881744384	0.8986099853515624	-0.009448749542236328	0.008582940101623535	0.9341079711914062	0.013897500038146972	0.035638500213623046	0.8433569946289062	0.006566510200500488	0.03491540145874023	0.8662630004882812	-0.0012946000099182129	0.03323799896240234	0.8934979858398437	-0.010328700065612793	0.03156209945678711	0.9305289916992188	0.019661500930786134	0.07210820007324219	0.8658189697265625	0.011378199577331542	0.06716230010986328	0.886166015625	0.004827549934387207	0.060998600006103514	0.9085590209960938	-0.005567550182342529	0.050898601531982425	0.9390430297851563	0.019618200302124023	0.11081700134277343	0.9182360229492188	0.012364999771118164	0.09762409973144531	0.9296699829101562	0.006032660007476807	0.08556510162353516	0.9395770263671875	-0.0043578801155090335	0.06648470306396484	0.9536580200195313	-0.05713299942016602	0.03839899826049804	0.9963079833984375
6	0.2	-0.017253900527954103	-0.06658280181884765	0.9506160278320313	-0.013441699981689453	-0.043111698150634765	0.9601099853515624	-0.025922800064086916	-0.021429100036621095	0.9725830078125	-0.03338290023803711	0.01064169979095459	0.985823974609375	0.010694199562072754	-0.001426730036735534	0.8532869873046875	0.00525544023513794	0.000264196008443832	0.8754569702148437	-0.00038896501064300505	0.002692589998245239	0.8980120239257813	-0.009840649604797363	0.008935629844665527	0.93335400390625	0.012541299819946288	0.03577849960327149	0.84239697265625	0.005401340007781983	0.03510689926147461	0.8655490112304688	-0.002163120031356811	0.033502998352050783	0.8928389892578125	-0.01080720043182373	0.03186870002746582	0.9298709716796875	0.01862700080871582	0.07208350372314454	0.8649039916992187	0.01050160026550293	0.06728679656982423	0.8852589721679688	0.0042348699569702145	0.061255298614501956	0.9078699951171875	-0.006018300056457518	0.051257198333740234	0.9383259887695312	0.019226299285888673	0.11093000030517577	0.9170349731445312	0.011949999809265137	0.09779750061035156	0.928698974609375	0.005574460029602051	0.08583670043945313	0.938468017578125	-0.004691840171813965	0.06684559631347656	0.9527849731445313	-0.05683319854736328	0.03873149871826172	0.9962999877929688
